<?xml version="1.0" encoding="UTF-8"?>
<svg xmlns="http://www.w3.org/2000/svg" xmlns:xlink="http://www.w3.org/1999/xlink" width="80pt" height="80pt" viewBox="0 0 80 80" version="1.1">
<g id="surface1">
<path style=" stroke:none;fill-rule:nonzero;fill:rgb(40.784314%,60%,81.960784%);fill-opacity:1;" d="M 61.925781 18.816406 C 66.371094 18.816406 69.925781 22.371094 69.925781 26.816406 C 69.925781 31.257812 66.371094 34.816406 61.925781 34.816406 C 57.480469 34.816406 53.925781 31.257812 53.925781 26.816406 C 53.925781 22.371094 57.480469 18.816406 61.925781 18.816406 Z M 61.925781 18.816406 "/>
<path style=" stroke:none;fill-rule:nonzero;fill:rgb(83.921569%,87.45098%,90.980392%);fill-opacity:1;" d="M 53.183594 22.667969 C 53.183594 22.667969 53.332031 22.519531 53.332031 22.519531 C 53.480469 22.371094 53.628906 22.074219 53.628906 21.925781 C 53.925781 21.480469 53.777344 21.035156 53.332031 20.890625 C 52.890625 20.59375 52.445312 20.742188 52.296875 21.183594 C 52.148438 21.480469 52 21.628906 51.851562 21.925781 C 51.703125 22.371094 51.851562 22.816406 52.148438 22.964844 C 52.59375 22.964844 53.035156 22.964844 53.183594 22.667969 Z M 53.183594 22.667969 "/>
<path style=" stroke:none;fill-rule:nonzero;fill:rgb(83.921569%,87.45098%,90.980392%);fill-opacity:1;" d="M 55.109375 33.628906 C 53.035156 31.554688 52 28.445312 52.445312 25.480469 C 52.445312 25.035156 52.148438 24.59375 51.851562 24.59375 C 51.40625 24.59375 50.964844 24.890625 50.964844 25.183594 C 50.371094 28.742188 51.554688 32.296875 54.074219 34.667969 C 54.074219 34.667969 54.074219 34.667969 54.074219 34.816406 C 54.371094 35.109375 54.816406 35.109375 55.257812 34.816406 C 55.40625 34.371094 55.40625 33.925781 55.109375 33.628906 Z M 55.109375 33.628906 "/>
<path style=" stroke:none;fill-rule:nonzero;fill:rgb(83.921569%,87.45098%,90.980392%);fill-opacity:1;" d="M 66.222656 18.371094 C 66.371094 18.519531 66.667969 18.667969 66.816406 18.667969 C 67.109375 18.816406 67.554688 18.816406 67.851562 18.519531 C 67.851562 18.519531 68 18.371094 68 18.371094 C 68.296875 17.925781 68.148438 17.480469 67.703125 17.332031 C 67.40625 17.183594 67.257812 17.035156 66.964844 16.890625 C 66.519531 16.742188 66.074219 16.890625 65.925781 17.183594 C 65.628906 17.628906 65.777344 18.074219 66.222656 18.371094 Z M 66.222656 18.371094 "/>
<path style=" stroke:none;fill-rule:nonzero;fill:rgb(83.921569%,87.45098%,90.980392%);fill-opacity:1;" d="M 63.554688 15.851562 C 60 15.257812 56.445312 16.445312 53.925781 18.964844 C 53.628906 19.257812 53.628906 19.703125 53.925781 20.148438 C 54.222656 20.445312 54.816406 20.445312 55.109375 20.148438 C 57.183594 18.074219 60.296875 17.035156 63.257812 17.480469 C 63.554688 17.480469 63.703125 17.480469 64 17.183594 C 64.148438 17.035156 64.148438 16.890625 64.296875 16.742188 C 64.296875 16.296875 64 15.851562 63.554688 15.851562 Z M 63.554688 15.851562 "/>
<path style=" stroke:none;fill-rule:nonzero;fill:rgb(83.921569%,87.45098%,90.980392%);fill-opacity:1;" d="M 68.59375 18.964844 C 68.296875 19.257812 68.296875 19.851562 68.59375 20.148438 C 70.816406 22.371094 71.703125 25.332031 71.257812 28.445312 C 71.257812 28.890625 71.554688 29.332031 71.851562 29.332031 C 72.148438 29.332031 72.296875 29.332031 72.59375 29.035156 C 72.742188 28.890625 72.742188 28.742188 72.890625 28.59375 C 73.480469 25.035156 72.296875 21.480469 69.777344 18.964844 C 69.480469 18.667969 68.890625 18.667969 68.59375 18.964844 Z M 68.59375 18.964844 "/>
<path style=" stroke:none;fill-rule:nonzero;fill:rgb(83.921569%,87.45098%,90.980392%);fill-opacity:1;" d="M 57.628906 35.257812 C 57.480469 35.109375 57.183594 34.964844 57.035156 34.964844 C 56.59375 34.667969 56.148438 34.816406 56 35.257812 C 55.703125 35.703125 55.851562 36.148438 56.296875 36.296875 C 56.59375 36.445312 56.742188 36.59375 57.035156 36.742188 C 57.332031 36.890625 57.777344 36.890625 57.925781 36.59375 C 57.925781 36.59375 58.074219 36.445312 58.074219 36.445312 C 58.074219 36 57.925781 35.554688 57.628906 35.257812 Z M 57.628906 35.257812 "/>
<path style=" stroke:none;fill-rule:nonzero;fill:rgb(83.921569%,87.45098%,90.980392%);fill-opacity:1;" d="M 70.371094 31.109375 C 70.222656 31.257812 70.074219 31.554688 70.074219 31.703125 C 69.777344 32.148438 69.925781 32.59375 70.371094 32.742188 C 70.667969 32.890625 71.109375 32.890625 71.40625 32.59375 C 71.40625 32.59375 71.554688 32.445312 71.554688 32.445312 C 71.703125 32.148438 71.851562 32 72 31.703125 C 72.148438 31.257812 72 30.816406 71.703125 30.667969 C 71.109375 30.667969 70.667969 30.816406 70.371094 31.109375 Z M 70.371094 31.109375 "/>
<path style=" stroke:none;fill-rule:nonzero;fill:rgb(83.921569%,87.45098%,90.980392%);fill-opacity:1;" d="M 68.59375 33.628906 C 66.519531 35.703125 63.40625 36.742188 60.445312 36.296875 C 60 36.296875 59.554688 36.59375 59.554688 36.890625 C 59.554688 37.332031 59.851562 37.777344 60.148438 37.777344 C 63.703125 38.371094 67.257812 37.183594 69.777344 34.667969 C 70.074219 34.371094 70.074219 33.925781 69.777344 33.480469 C 69.480469 33.183594 68.890625 33.183594 68.59375 33.628906 Z M 68.59375 33.628906 "/>
<path style=" stroke:none;fill-rule:nonzero;fill:rgb(83.921569%,87.45098%,90.980392%);fill-opacity:1;" d="M 62.667969 29.628906 L 62.667969 24 L 63.257812 23.40625 C 63.554688 23.109375 63.554688 22.667969 63.257812 22.222656 C 62.964844 21.925781 62.519531 21.925781 62.074219 22.222656 L 61.777344 22.519531 L 61.628906 22.222656 C 61.332031 21.925781 60.890625 21.925781 60.445312 22.222656 C 60.148438 22.519531 60.148438 22.964844 60.445312 23.40625 L 61.035156 24 L 61.035156 29.628906 L 60.445312 30.222656 C 60.148438 30.519531 60.148438 30.964844 60.445312 31.40625 C 60.59375 31.554688 60.742188 31.703125 61.035156 31.703125 C 61.183594 31.703125 61.480469 31.554688 61.628906 31.40625 L 61.925781 31.109375 L 62.222656 31.40625 C 62.371094 31.554688 62.519531 31.703125 62.816406 31.703125 C 62.964844 31.703125 63.257812 31.554688 63.40625 31.40625 C 63.703125 31.109375 63.703125 30.667969 63.40625 30.222656 Z M 62.667969 29.628906 "/>
<path style=" stroke:none;fill-rule:nonzero;fill:rgb(96.078431%,96.862745%,98.039216%);fill-opacity:1;" d="M 65.925781 24.742188 L 65.628906 24.59375 L 65.777344 24.296875 C 65.925781 23.851562 65.628906 23.40625 65.183594 23.257812 C 64.742188 23.109375 64.296875 23.40625 64.148438 23.851562 L 64 24.59375 L 59.109375 27.40625 L 58.371094 27.257812 C 57.925781 27.109375 57.480469 27.40625 57.332031 27.851562 C 57.183594 28.296875 57.480469 28.742188 57.925781 28.890625 L 58.222656 29.035156 L 58.074219 29.332031 C 57.925781 29.777344 58.222656 30.222656 58.667969 30.371094 C 58.667969 30.371094 58.816406 30.371094 58.816406 30.371094 C 59.109375 30.371094 59.554688 30.074219 59.554688 29.777344 L 59.703125 29.035156 L 64.59375 26.222656 L 65.332031 26.371094 C 65.332031 26.371094 65.480469 26.371094 65.480469 26.371094 C 65.777344 26.371094 66.222656 26.074219 66.222656 25.777344 C 66.667969 25.332031 66.371094 24.890625 65.925781 24.742188 Z M 65.925781 24.742188 "/>
<path style=" stroke:none;fill-rule:nonzero;fill:rgb(90.588235%,91.372549%,92.941176%);fill-opacity:1;" d="M 64.59375 29.183594 C 64.445312 29.183594 64.296875 29.183594 64.148438 29.035156 L 58.667969 25.925781 C 58.222656 25.777344 58.222656 25.183594 58.371094 24.890625 C 58.519531 24.445312 59.109375 24.445312 59.40625 24.59375 L 64.890625 27.703125 C 65.332031 27.851562 65.332031 28.445312 65.183594 28.742188 C 65.183594 29.035156 64.890625 29.183594 64.59375 29.183594 Z M 64.59375 29.183594 "/>
<path style=" stroke:none;fill-rule:nonzero;fill:rgb(90.588235%,91.372549%,92.941176%);fill-opacity:1;" d="M 66.519531 27.851562 C 66.371094 27.40625 65.925781 27.109375 65.480469 27.257812 L 64.445312 27.554688 C 64.296875 27.554688 64.296875 27.554688 64.148438 27.703125 C 64.148438 27.703125 64.148438 27.703125 64 27.703125 C 64 27.703125 64 27.851562 63.851562 27.851562 C 63.703125 28 63.703125 28.296875 63.703125 28.445312 L 64 29.480469 C 64.148438 29.777344 64.445312 30.074219 64.742188 30.074219 C 64.742188 30.074219 64.890625 30.074219 64.890625 30.074219 C 65.332031 29.925781 65.628906 29.480469 65.480469 29.035156 L 65.332031 28.742188 L 65.628906 28.59375 C 66.371094 28.742188 66.667969 28.296875 66.519531 27.851562 Z M 66.519531 27.851562 "/>
<path style=" stroke:none;fill-rule:nonzero;fill:rgb(90.588235%,91.372549%,92.941176%);fill-opacity:1;" d="M 59.554688 24 C 59.40625 23.554688 58.964844 23.257812 58.519531 23.40625 C 58.074219 23.554688 57.777344 24 57.925781 24.445312 L 58.074219 24.742188 L 57.777344 24.742188 C 57.332031 24.890625 57.035156 25.332031 57.183594 25.777344 C 57.332031 26.074219 57.628906 26.371094 57.925781 26.371094 C 57.925781 26.371094 58.074219 26.371094 58.074219 26.371094 L 59.109375 26.074219 C 59.554688 25.925781 59.851562 25.480469 59.703125 25.035156 Z M 59.554688 24 "/>
<path style=" stroke:none;fill-rule:nonzero;fill:rgb(84.705882%,88.235294%,90.196078%);fill-opacity:1;" d="M 14.816406 56.445312 L 69.480469 56.445312 C 70.371094 56.445312 71.109375 57.183594 71.109375 58.074219 L 71.109375 60.148438 C 71.109375 61.035156 70.371094 61.777344 69.480469 61.777344 L 14.816406 61.777344 C 13.925781 61.777344 13.183594 61.035156 13.183594 60.148438 L 13.183594 58.074219 C 13.332031 57.183594 13.925781 56.445312 14.816406 56.445312 Z M 14.816406 56.445312 "/>
<path style="fill-rule:nonzero;fill:rgb(100%,100%,100%);fill-opacity:1;stroke-width:1;stroke-linecap:butt;stroke-linejoin:miter;stroke:rgb(14.117647%,16.470588%,23.529412%);stroke-opacity:1;stroke-miterlimit:4;" d="M 7.40127 23.60127 L 3.699316 27.601172 C 3.200977 28.199707 2.800195 29.00127 2.800195 29.800195 L 2.800195 30.200977 C 2.800195 30.599121 2.7 30.899707 2.599805 31.300488 L 1.700684 33.900293 C 1.299902 34.999805 1.500293 36.199512 2.299219 37.001074 L 2.800195 37.599609 C 3.39873 38.300977 4.300488 38.699121 5.199609 38.699121 L 49.398926 39.099902 C 51.099609 39.099902 52.599902 37.699805 52.599902 35.999121 C 52.599902 35.898926 52.599902 35.79873 52.599902 35.701172 L 52.399512 33.599707 C 52.399512 33.198926 52.299316 32.800781 52.098926 32.4 C 51.700781 31.601074 50.999414 31.100098 50.200488 30.799512 L 42.000293 28.099512 C 41.799902 27.999316 41.699707 27.999316 41.499316 27.899121 L 33.001172 23.501074 C 30.999902 22.398926 28.700684 21.900586 26.398828 21.800391 L 12.200098 21.499805 C 10.399219 21.499805 8.701172 22.201172 7.40127 23.60127 Z M 7.40127 23.60127 " transform="matrix(1.481481,0,0,1.481481,0,0)"/>
<path style=" stroke:none;fill-rule:nonzero;fill:rgb(83.921569%,87.45098%,90.980392%);fill-opacity:1;" d="M 7.597656 55.109375 C 6.265625 54.960938 5.226562 53.921875 4.933594 52.589844 C 4.785156 52.144531 4.933594 51.699219 4.933594 51.257812 C 5.523438 49.480469 8.933594 43.257812 17.375 46.367188 C 25.820312 49.480469 26.414062 55.550781 21.820312 56.292969 C 18.5625 56.589844 10.859375 55.550781 7.597656 55.109375 Z M 7.597656 55.109375 "/>
<path style=" stroke:none;fill-rule:nonzero;fill:rgb(90.980392%,24.313725%,20%);fill-opacity:1;" d="M 66.371094 42.964844 C 66.074219 42.816406 65.777344 42.816406 65.480469 42.964844 C 65.035156 43.40625 65.035156 44.148438 65.480469 44.59375 C 65.480469 44.59375 65.628906 44.742188 65.628906 44.742188 L 70.816406 48.445312 C 71.554688 49.035156 72.59375 49.183594 73.628906 48.890625 C 74.074219 48.890625 74.519531 48.890625 74.964844 49.035156 C 75.851562 49.035156 76.445312 48.445312 76.445312 47.554688 C 76.445312 47.40625 76.445312 47.109375 76.296875 46.964844 L 76.148438 46.371094 C 76 45.925781 75.554688 45.628906 75.257812 45.480469 Z M 66.371094 42.964844 "/>
<path style=" stroke:none;fill-rule:nonzero;fill:rgb(14.117647%,16.470588%,23.529412%);fill-opacity:1;" d="M 65.183594 42.222656 L 65.035156 42.222656 L 64.890625 42.371094 C 64.148438 43.109375 64.148438 44.296875 64.890625 45.183594 C 65.035156 45.332031 65.035156 45.332031 65.183594 45.332031 L 70.371094 49.035156 C 71.40625 49.628906 72.59375 49.925781 73.777344 49.628906 C 74.074219 49.628906 74.519531 49.628906 74.816406 49.777344 L 74.964844 49.777344 C 76.148438 49.777344 77.183594 48.742188 77.183594 47.554688 C 77.183594 47.257812 77.183594 46.964844 77.035156 46.667969 L 76.890625 46.074219 C 76.59375 45.480469 76.148438 44.890625 75.40625 44.742188 L 66.519531 42.074219 C 66.074219 42.074219 65.628906 42.074219 65.183594 42.222656 Z M 73.480469 48.148438 C 72.742188 48.296875 71.851562 48.296875 71.257812 47.851562 L 66.074219 44.296875 C 65.925781 44.148438 65.777344 44 65.925781 43.703125 C 66.074219 43.703125 66.074219 43.703125 66.222656 43.703125 L 75.109375 46.371094 C 75.257812 46.371094 75.554688 46.519531 75.554688 46.816406 L 75.703125 47.40625 C 75.851562 47.851562 75.703125 48.148438 75.257812 48.296875 C 75.257812 48.296875 75.109375 48.296875 75.109375 48.296875 C 74.519531 48.148438 74.074219 48 73.480469 48.148438 Z M 73.480469 48.148438 "/>
<path style=" stroke:none;fill-rule:nonzero;fill:rgb(14.117647%,16.470588%,23.529412%);fill-opacity:1;" d="M 28.890625 34.816406 L 20.890625 35.257812 C 18.519531 35.40625 16.296875 36.445312 14.519531 38.074219 C 14.074219 38.519531 14.074219 39.40625 14.519531 39.851562 C 14.667969 40 14.964844 40.148438 15.257812 40.148438 L 28.742188 41.183594 C 29.480469 41.183594 30.074219 40.742188 30.074219 40 C 30.074219 40 30.074219 40 30.074219 39.851562 L 30.074219 36 C 30.074219 35.40625 29.628906 34.816406 28.890625 34.816406 Z M 28.890625 34.816406 "/>
<path style=" stroke:none;fill-rule:nonzero;fill:rgb(100%,100%,100%);fill-opacity:1;" d="M 66.964844 54.964844 C 66.964844 57.417969 64.972656 59.40625 62.519531 59.40625 C 60.0625 59.40625 58.074219 57.417969 58.074219 54.964844 C 58.074219 52.507812 60.0625 50.519531 62.519531 50.519531 C 64.972656 50.519531 66.964844 52.507812 66.964844 54.964844 Z M 66.964844 54.964844 "/>
<path style=" stroke:none;fill-rule:nonzero;fill:rgb(100%,100%,100%);fill-opacity:1;" d="M 18.816406 54.964844 C 18.816406 57.417969 16.824219 59.40625 14.371094 59.40625 C 11.914062 59.40625 9.925781 57.417969 9.925781 54.964844 C 9.925781 52.507812 11.914062 50.519531 14.371094 50.519531 C 16.824219 50.519531 18.816406 52.507812 18.816406 54.964844 Z M 18.816406 54.964844 "/>
<path style=" stroke:none;fill-rule:nonzero;fill:rgb(14.117647%,16.470588%,23.529412%);fill-opacity:1;" d="M 13.925781 47.257812 C 18.667969 47.257812 22.519531 51.109375 22.519531 55.703125 C 22.519531 60.445312 18.667969 64.296875 14.074219 64.296875 C 9.480469 64.296875 5.480469 60.445312 5.480469 55.851562 C 5.332031 51.109375 9.183594 47.257812 13.925781 47.257812 Z M 13.925781 53.332031 C 12.59375 53.332031 11.40625 54.519531 11.40625 55.851562 C 11.40625 57.183594 12.59375 58.371094 13.925781 58.371094 C 15.257812 58.371094 16.445312 57.183594 16.445312 55.851562 C 16.445312 54.371094 15.257812 53.332031 13.925781 53.332031 Z M 13.925781 53.332031 "/>
<path style=" stroke:none;fill-rule:nonzero;fill:rgb(14.117647%,16.470588%,23.529412%);fill-opacity:1;" d="M 62.816406 47.257812 C 67.554688 47.703125 70.816406 52 70.371094 56.59375 C 69.925781 61.332031 65.628906 64.59375 61.035156 64.148438 C 56.296875 63.703125 52.890625 59.554688 53.480469 54.816406 C 53.925781 50.222656 58.074219 46.816406 62.816406 47.257812 Z M 62.222656 53.332031 C 60.890625 53.183594 59.554688 54.222656 59.40625 55.554688 C 59.257812 56.890625 60.296875 58.222656 61.628906 58.371094 C 62.964844 58.519531 64.296875 57.480469 64.445312 56.148438 C 64.59375 54.667969 63.554688 53.480469 62.222656 53.332031 Z M 62.222656 53.332031 "/>
<path style=" stroke:none;fill-rule:nonzero;fill:rgb(14.117647%,16.470588%,23.529412%);fill-opacity:1;" d="M 54.371094 41.628906 L 47.257812 37.480469 C 44.890625 36.148438 42.371094 35.257812 39.554688 35.109375 L 35.109375 34.816406 C 34.519531 34.816406 34.074219 35.109375 34.074219 35.703125 C 34.074219 35.703125 34.074219 35.851562 34.074219 35.851562 L 34.519531 41.035156 C 34.519531 41.480469 34.964844 41.925781 35.40625 41.925781 L 53.777344 43.40625 C 54.371094 43.40625 54.816406 43.109375 54.816406 42.519531 C 54.816406 42.222656 54.667969 41.777344 54.371094 41.628906 Z M 54.371094 41.628906 "/>
<path style=" stroke:none;fill-rule:nonzero;fill:rgb(14.117647%,16.470588%,23.529412%);fill-opacity:1;" d="M 20.742188 34.371094 C 18.222656 34.519531 15.703125 35.554688 13.925781 37.332031 C 13.183594 38.074219 13.183594 39.40625 13.925781 40.148438 C 14.222656 40.445312 14.667969 40.742188 15.257812 40.742188 L 28.742188 41.777344 C 29.777344 41.925781 30.816406 41.035156 30.816406 39.851562 C 30.816406 39.851562 30.816406 39.703125 30.816406 39.703125 L 30.816406 35.851562 C 30.816406 34.816406 29.925781 33.925781 28.890625 33.925781 C 28.890625 33.925781 28.890625 33.925781 28.742188 33.925781 Z M 29.183594 35.703125 C 29.332031 35.851562 29.332031 35.851562 29.332031 36 L 29.332031 39.851562 C 29.332031 40.148438 29.035156 40.296875 28.890625 40.296875 L 15.40625 39.257812 C 15.109375 39.257812 14.964844 38.964844 14.964844 38.667969 C 14.964844 38.519531 14.964844 38.371094 15.109375 38.371094 C 16.59375 36.890625 18.667969 35.851562 20.890625 35.851562 L 28.890625 35.40625 C 29.035156 35.554688 29.183594 35.554688 29.183594 35.703125 Z M 29.183594 35.703125 "/>
<path style=" stroke:none;fill-rule:nonzero;fill:rgb(14.117647%,16.470588%,23.529412%);fill-opacity:1;" d="M 54.816406 41.035156 L 47.703125 36.890625 C 45.332031 35.40625 42.519531 34.667969 39.703125 34.371094 L 35.257812 34.074219 C 34.371094 34.074219 33.480469 34.667969 33.480469 35.703125 C 33.480469 35.851562 33.480469 35.851562 33.480469 36 L 33.925781 41.183594 C 34.074219 42.074219 34.667969 42.667969 35.554688 42.816406 L 53.925781 44.296875 C 54.816406 44.296875 55.703125 43.703125 55.703125 42.667969 C 55.554688 41.925781 55.257812 41.332031 54.816406 41.035156 Z M 54.074219 42.519531 C 54.074219 42.667969 53.925781 42.667969 53.925781 42.667969 L 35.554688 41.183594 C 35.40625 41.183594 35.40625 41.035156 35.40625 41.035156 L 34.964844 35.851562 C 34.964844 35.703125 35.109375 35.554688 35.109375 35.554688 L 39.554688 35.851562 C 42.074219 36 44.59375 36.742188 46.816406 38.074219 L 53.925781 42.222656 C 54.074219 42.371094 54.074219 42.371094 54.074219 42.519531 Z M 54.074219 42.519531 "/>
<path style=" stroke:none;fill-rule:nonzero;fill:rgb(90.980392%,24.313725%,20%);fill-opacity:1;" d="M 6.222656 40.59375 L 8.890625 40.890625 C 9.480469 40.890625 9.925781 41.480469 9.777344 42.074219 C 9.777344 42.371094 9.628906 42.519531 9.480469 42.667969 L 7.257812 44.890625 C 7.109375 45.035156 6.964844 45.183594 6.667969 45.183594 L 5.035156 45.480469 C 4.445312 45.628906 4 45.183594 3.851562 44.742188 C 3.851562 44.742188 3.851562 44.59375 3.851562 44.59375 L 3.851562 42.964844 C 3.851562 42.667969 4 42.519531 4.148438 42.222656 L 5.332031 40.890625 C 5.628906 40.742188 5.925781 40.59375 6.222656 40.59375 Z M 6.222656 40.59375 "/>
<path style=" stroke:none;fill-rule:nonzero;fill:rgb(14.117647%,16.470588%,23.529412%);fill-opacity:1;" d="M 6.371094 39.851562 L 9.035156 40.148438 C 10.074219 40.296875 10.667969 41.183594 10.519531 42.074219 C 10.519531 42.519531 10.222656 42.816406 10.074219 43.109375 L 7.851562 45.332031 C 7.554688 45.628906 7.257812 45.777344 6.964844 45.777344 L 5.332031 46.074219 C 4.296875 46.222656 3.40625 45.628906 3.257812 44.742188 C 3.257812 44.59375 3.257812 44.445312 3.257812 44.445312 L 3.257812 42.964844 C 3.257812 42.519531 3.40625 42.074219 3.703125 41.777344 L 4.890625 40.445312 C 5.183594 40 5.777344 39.851562 6.371094 39.851562 Z M 6.074219 41.332031 C 5.925781 41.332031 5.925781 41.332031 5.777344 41.480469 L 4.59375 42.816406 C 4.59375 42.816406 4.445312 42.964844 4.445312 42.964844 L 4.445312 44.445312 C 4.445312 44.59375 4.59375 44.742188 4.742188 44.742188 L 6.667969 44.445312 C 6.667969 44.445312 6.816406 44.445312 6.816406 44.296875 L 8.890625 42.222656 C 9.035156 42.074219 9.035156 41.925781 8.890625 41.777344 C 8.890625 41.777344 8.742188 41.777344 8.742188 41.628906 Z M 6.074219 41.332031 "/>
<path style=" stroke:none;fill-rule:nonzero;fill:rgb(83.921569%,87.45098%,90.980392%);fill-opacity:1;" d="M 75.554688 51.257812 C 75.554688 51.257812 76.148438 53.925781 74.964844 55.109375 C 73.628906 56.445312 71.109375 56.445312 71.109375 55.109375 C 71.109375 53.777344 69.628906 52.59375 75.554688 51.257812 Z M 75.554688 51.257812 "/>
<path style=" stroke:none;fill-rule:nonzero;fill:rgb(100%,100%,100%);fill-opacity:1;" d="M 27.703125 46.074219 C 27.703125 47.21875 26.773438 48.148438 25.628906 48.148438 C 24.484375 48.148438 23.554688 47.21875 23.554688 46.074219 C 23.554688 44.929688 24.484375 44 25.628906 44 C 26.773438 44 27.703125 44.929688 27.703125 46.074219 Z M 27.703125 46.074219 "/>
<path style=" stroke:none;fill-rule:nonzero;fill:rgb(83.921569%,87.45098%,90.980392%);fill-opacity:1;" d="M 15.40625 22.519531 C 15.109375 26.222656 11.257812 26.667969 11.257812 26.667969 C 14.519531 26.816406 15.40625 31.109375 15.40625 31.109375 C 15.40625 28 19.554688 26.667969 19.554688 26.667969 C 16.445312 26.519531 15.40625 22.519531 15.40625 22.519531 Z M 15.40625 22.519531 "/>
<path style=" stroke:none;fill-rule:nonzero;fill:rgb(14.117647%,16.470588%,23.529412%);fill-opacity:1;" d="M 19.554688 26.222656 C 16.890625 26.074219 15.851562 22.371094 15.851562 22.371094 C 15.851562 22.222656 15.554688 22.074219 15.40625 22.074219 C 15.109375 22.074219 14.964844 22.222656 14.964844 22.519531 C 14.667969 25.777344 11.40625 26.222656 11.257812 26.371094 C 10.964844 26.371094 10.816406 26.667969 10.816406 26.816406 C 10.816406 27.109375 10.964844 27.257812 11.257812 27.257812 C 14.074219 27.40625 14.816406 31.257812 14.964844 31.257812 C 14.964844 31.554688 15.257812 31.703125 15.40625 31.703125 C 15.703125 31.703125 15.851562 31.554688 15.851562 31.257812 C 15.851562 28.59375 19.703125 27.257812 19.703125 27.257812 C 19.851562 27.109375 20 26.964844 20 26.816406 C 20 26.371094 19.851562 26.222656 19.554688 26.222656 Z M 15.257812 29.480469 C 14.816406 28.59375 14.074219 27.40625 12.890625 26.667969 C 13.777344 26.222656 14.964844 25.480469 15.40625 24 C 15.851562 25.035156 16.742188 26.222656 18.074219 26.816406 C 17.183594 27.40625 16 28.296875 15.257812 29.480469 Z M 15.257812 29.480469 "/>
<path style=" stroke:none;fill-rule:nonzero;fill:rgb(83.921569%,87.45098%,90.980392%);fill-opacity:1;" d="M 8.59375 27.851562 C 8.445312 30.371094 5.628906 30.816406 5.628906 30.816406 C 8 30.964844 8.59375 34.074219 8.59375 34.074219 C 8.59375 31.851562 11.554688 30.964844 11.554688 30.964844 C 9.332031 30.667969 8.59375 27.851562 8.59375 27.851562 Z M 8.59375 27.851562 "/>
<path style=" stroke:none;fill-rule:nonzero;fill:rgb(14.117647%,16.470588%,23.529412%);fill-opacity:1;" d="M 11.554688 30.371094 C 9.777344 30.222656 9.035156 27.851562 9.035156 27.703125 C 9.035156 27.554688 8.742188 27.40625 8.59375 27.40625 C 8.296875 27.40625 8.148438 27.554688 8.148438 27.851562 C 8 30.074219 5.777344 30.371094 5.628906 30.371094 C 5.332031 30.371094 5.183594 30.667969 5.183594 30.816406 C 5.183594 31.109375 5.332031 31.257812 5.628906 31.257812 C 7.554688 31.40625 8 34.074219 8 34.074219 C 8 34.371094 8.296875 34.519531 8.445312 34.519531 C 8.742188 34.519531 8.890625 34.371094 8.890625 34.074219 C 8.890625 32.296875 11.554688 31.40625 11.554688 31.40625 C 11.703125 31.40625 11.851562 31.109375 11.851562 30.964844 C 12 30.519531 11.703125 30.371094 11.554688 30.371094 Z M 8.445312 32.59375 C 8.148438 32 7.703125 31.40625 7.109375 30.964844 C 7.703125 30.667969 8.296875 30.074219 8.59375 29.480469 C 8.890625 30.074219 9.480469 30.667969 10.222656 31.109375 C 9.628906 31.257812 8.890625 31.851562 8.445312 32.59375 Z M 8.445312 32.59375 "/>
<path style=" stroke:none;fill-rule:nonzero;fill:rgb(83.921569%,87.45098%,90.980392%);fill-opacity:1;" d="M 8.59375 19.554688 C 8.445312 22.074219 5.628906 22.519531 5.628906 22.519531 C 8 22.667969 8.445312 25.628906 8.445312 25.628906 C 8.445312 23.40625 11.40625 22.519531 11.40625 22.519531 C 9.332031 22.371094 8.59375 19.554688 8.59375 19.554688 Z M 8.59375 19.554688 "/>
<path style=" stroke:none;fill-rule:nonzero;fill:rgb(14.117647%,16.470588%,23.529412%);fill-opacity:1;" d="M 11.554688 21.925781 C 9.777344 21.777344 9.035156 19.40625 9.035156 19.257812 C 9.035156 19.109375 8.742188 18.964844 8.59375 18.964844 C 8.296875 18.964844 8.148438 19.109375 8.148438 19.40625 C 8 21.628906 5.777344 21.925781 5.628906 21.925781 C 5.332031 21.925781 5.183594 22.222656 5.183594 22.371094 C 5.183594 22.667969 5.332031 22.816406 5.628906 22.816406 C 7.554688 22.964844 8 25.480469 8 25.628906 C 8 25.925781 8.296875 26.074219 8.445312 26.074219 C 8.742188 26.074219 8.890625 25.925781 8.890625 25.628906 C 8.890625 23.851562 11.554688 22.964844 11.554688 22.964844 C 11.703125 22.964844 11.851562 22.667969 11.851562 22.519531 C 12 22.222656 11.703125 21.925781 11.554688 21.925781 Z M 8.445312 24.148438 C 8.148438 23.554688 7.703125 22.964844 7.109375 22.519531 C 7.703125 22.222656 8.296875 21.628906 8.59375 21.035156 C 8.890625 21.480469 9.480469 22.222656 10.222656 22.519531 C 9.628906 22.964844 8.890625 23.40625 8.445312 24.148438 Z M 8.445312 24.148438 "/>
</g>
</svg>
